<?xml version="1.0" encoding="utf-8"?>
<!-- Generator: Adobe Illustrator 24.2.3, SVG Export Plug-In . SVG Version: 6.00 Build 0)  -->
<svg version="1.1" id="Ebene_1" xmlns="http://www.w3.org/2000/svg" xmlns:xlink="http://www.w3.org/1999/xlink" x="0px" y="0px"
	 viewBox="0 0 1453.3 646.2" style="enable-background:new 0 0 1453.3 646.2;" xml:space="preserve">
<style type="text/css">
	.st0{opacity:0.3;enable-background:new    ;}
	.st1{fill:#FFFFFF;}
	.st2{fill:#5CB330;}
	.st3{fill:#6B6B6B;}
	.st4{fill:none;stroke:#5CB330;stroke-width:24;stroke-miterlimit:10;}
	.st5{fill:#D41317;}
	.st6{fill:#6A6A6A;}
	.st7{fill:#676767;}
</style>
<path class="st0" d="M1218.1,136.4c-6.3-8-15.8-12.6-25.9-12.6h-67.5l-0.3-5.2v-0.5c-2.4-29.6-11.1-52.9-25.8-69.3
	c-16.4-18.4-39.9-28-69.8-28.6h-0.2l-559.7,2c-29.2,0-55.4,10.6-73.8,29.9c-17.8,18.6-26.9,43.7-25.7,70.5l0.4,8
	c-5.7,2.5-11.2,5.3-16.5,8.5c-23.2,13.8-43.2,33.3-59.4,57.8c-15.4,23.4-27.5,51.2-36,82.8c-8.3,31-12.5,65.2-12.5,101.9
	c0,14.3,1.8,28.4,5.3,41.9c3.9,14.9,10.3,28.4,19.1,40.3c9.3,12.6,21.4,22.8,35.9,30.2c14.7,7.6,32.1,11.4,51.8,11.4
	c11.3,0,22.4-1.1,33.1-3.4l2.7,48.1c1.3,27.1,13.7,52.7,34,70.4c17.2,15,38.3,22.9,60.3,22.9c2.9,0,5.7-0.1,8.6-0.4h0.2l568.2-64
	h0.2c27.8-3.4,50.1-17.3,64.7-40.2c10.7-16.8,16.6-38.4,15.9-57.9l-0.9-15.1c13.6-12.5,24-27.6,31-45c7.1-17.6,10.7-37.1,10.7-58
	c0-15.9-2.9-31.1-8.7-45.3c-6-14.7-15-27.8-26.9-39.1c-11.5-10.9-25.8-19.8-42.6-26.6c-4.9-2-10.1-3.7-15.5-5.3
	c0.1-0.4,0.3-0.8,0.4-1.2h85.9c15.3,0,28.5-10.4,32.1-25.2l13.4-55.6C1226.6,154.7,1224.4,144.4,1218.1,136.4z"/>
<path class="st1" d="M1199.6,117.9c-6.3-8-15.8-12.6-25.9-12.6h-67.5l-0.3-5.2v-0.5c-2.4-29.6-11.1-52.9-25.8-69.3
	c-16.4-18.4-39.9-28-69.8-28.6h-0.2l-559.7,2c-29.2,0-55.4,10.6-73.8,29.9c-17.8,18.6-26.9,43.7-25.7,70.5l0.4,8
	c-5.7,2.5-11.2,5.3-16.5,8.5c-23.2,13.8-43.2,33.3-59.4,57.8c-15.4,23.4-27.5,51.2-36,82.8c-8.3,30.9-12.5,65.2-12.5,101.9
	c0,14.3,1.8,28.4,5.3,41.9c3.9,14.9,10.3,28.4,19.1,40.3c9.3,12.6,21.4,22.8,35.9,30.2c14.7,7.6,32.1,11.4,51.8,11.4
	c11.3,0,22.4-1.1,33.1-3.4l2.7,48.1c1.3,27.1,13.7,52.7,34,70.4c17.2,15,38.3,22.9,60.3,22.9c2.9,0,5.7-0.1,8.6-0.4h0.2l568.2-64
	h0.2c27.8-3.4,50.1-17.3,64.7-40.2c10.7-16.8,16.6-38.4,15.9-57.9l-0.9-15.1c13.6-12.5,24-27.6,31-45c7.1-17.6,10.7-37.1,10.7-58
	c0-15.9-2.9-31.1-8.7-45.3c-6-14.7-15-27.8-26.9-39.1c-11.5-10.9-25.8-19.8-42.6-26.6c-4.9-2-10.1-3.7-15.5-5.3
	c0.1-0.4,0.3-0.8,0.4-1.2h85.9c15.3,0,28.5-10.4,32.1-25.2l13.4-55.6C1208.1,136.2,1205.9,125.9,1199.6,117.9z"/>
<g>
	<path class="st2" d="M774.6,22.6l-324.2,1.2c-49.5,0-81.5,36-79.5,79.5l5.4,96l-28.4,35.5l-19,57l-8,68l11,32l30,5l24.6-15.5
		l8.4,149.5c2,43.5,39,78,81,74l185.5-20.9l41.9-207.6l-31.4-71.5l3-22l58.6-56.5L774.6,22.6z"/>
	<path class="st3" d="M1106.9,463.3l-11-189.8l-64-20.7l19-59l40.4,0.1l-5.4-92.6c-4-48.5-26-78.5-76-79.5l-207.8,0.7L689.5,580.7
		l354.4-39.9C1092.9,534.8,1107.9,489.8,1106.9,463.3z"/>
</g>
<g>
	<g>
		<path class="st4" d="M339.1,455c-14.6,0-27-2.6-37.2-7.8c-10.2-5.2-18.5-12.2-24.9-20.8c-6.4-8.7-11-18.4-13.9-29.3
			s-4.3-22.2-4.3-33.8c0-34,3.8-65.3,11.4-93.6c7.6-28.4,18.2-52.9,31.8-73.5c13.6-20.6,29.9-36.6,49.1-47.9
			c19.1-11.4,40.3-17,63.6-17c14.6,0,27,2.6,37.2,7.8c10.1,5.2,18.4,12.2,24.9,20.8c6.4,8.7,11.1,18.4,13.9,29.3
			c2.8,10.9,4.3,22.2,4.3,33.8c0,34.1-3.8,65.3-11.4,93.6c-7.6,28.4-18.2,52.9-31.8,73.5s-30,36.6-49.1,47.9
			C383.6,449.4,362.4,455,339.1,455z M349.4,397.7c9.6,0,18.4-2.8,26.4-8.5c8.1-5.7,15.1-13.1,21.3-22.4
			c6.1-9.3,11.5-19.8,16.1-31.6c4.6-11.8,8.4-23.8,11.4-36.1c3-12.2,5.2-24.2,6.7-35.8c1.5-11.6,2.2-21.9,2.2-30.9
			c0-15.2-2.3-26.4-6.9-33.6c-4.6-7.2-11.7-10.8-21.3-10.8c-9.9,0-18.8,2.8-26.9,8.5s-15.2,13.1-21.5,22.4
			c-6.3,9.3-11.7,19.9-16.4,31.8c-4.6,11.9-8.4,24-11.4,36.3s-5.2,24.2-6.7,35.8c-1.5,11.6-2.2,22-2.2,30.9
			c0,15.5,2.4,26.7,7.2,33.6C332.2,394.3,339.5,397.7,349.4,397.7z"/>
		<path class="st4" d="M490.1,378.4c0-9,1.3-17.5,3.8-25.8c2.5-8.2,6.6-16.2,12.1-24s12.6-15.3,21.3-22.6
			c8.7-7.3,19.1-14.7,31.4-22.2c-7.2-6.9-13.2-14.7-18.1-23.5c-4.9-8.8-7.4-19.5-7.4-32c0-11.6,2.2-23.3,6.5-34.9
			c4.3-11.6,11-22.1,20.2-31.4c9.1-9.3,20.5-16.7,34.3-22.4c13.7-5.7,30-8.5,48.8-8.5c12.5,0,24.2,1.8,34.9,5.4s20,8.6,27.8,15
			s13.9,14.3,18.4,23.5c4.5,9.3,6.7,19.4,6.7,30.5c0,6.6-0.8,13.5-2.2,20.8c-1.5,7.3-4.5,14.6-9,21.9c-4.5,7.3-10.8,14.7-19,22.2
			s-19,14.5-32.5,21.1c5.1,3.6,9.9,7.5,14.3,11.6c4.5,4.2,8.4,9,11.6,14.3c3.3,5.4,5.9,11.4,7.8,17.9c1.9,6.6,2.9,14,2.9,22.4
			c0,13.4-2.6,26.1-7.8,37.9S684,417.7,674,426.5s-22.5,15.8-37.4,20.8c-14.9,5.1-32,7.6-51.1,7.6c-11,0-22.3-1.3-33.6-3.8
			s-21.6-6.9-30.7-13c-9.1-6.1-16.6-14-22.4-23.7C493,404.8,490.1,392.8,490.1,378.4z M640.1,359.6c0-6-1-11.3-3.1-15.9
			s-5-8.9-8.7-12.8s-8.1-7.4-13-10.5s-10.2-6.2-15.9-9.2c-9.3,4.5-16.8,9.2-22.6,14.1s-10.5,9.9-13.9,15s-5.8,10.2-6.9,15.2
			c-1.2,5.1-1.8,10-1.8,14.8c0,10.5,3.6,18.3,11,23.5c7.3,5.2,16.2,7.8,26.7,7.8c6.3,0,12.3-1,18.1-2.9s11-4.7,15.5-8.3
			s8.1-8,10.8-13.2C638.8,372.1,640.1,366.2,640.1,359.6z M594.4,224.3c0,9.6,3,17.6,9,24.2c6,6.6,13.1,12.4,21.5,17.5
			c17.3-8.1,28.9-16.5,34.7-25.3s8.7-17.4,8.7-25.8c0-9.6-3-17-9-22.4s-14.2-8.1-24.6-8.1c-12.3,0-22,3.9-29.3,11.6
			C598.1,203.9,594.4,213.3,594.4,224.3z"/>
	</g>
</g>
<g>
	<path class="st1" d="M339.1,455c-14.6,0-27-2.6-37.2-7.8c-10.2-5.2-18.5-12.2-24.9-20.8c-6.4-8.7-11-18.4-13.9-29.3
		s-4.3-22.2-4.3-33.8c0-34,3.8-65.3,11.4-93.6c7.6-28.4,18.2-52.9,31.8-73.5c13.6-20.6,29.9-36.6,49.1-47.9
		c19.1-11.4,40.3-17,63.6-17c14.6,0,27,2.6,37.2,7.8c10.1,5.2,18.4,12.2,24.9,20.8c6.4,8.7,11.1,18.4,13.9,29.3
		c2.8,10.9,4.3,22.2,4.3,33.8c0,34.1-3.8,65.3-11.4,93.6c-7.6,28.4-18.2,52.9-31.8,73.5s-30,36.6-49.1,47.9
		C383.6,449.4,362.4,455,339.1,455z M349.4,397.7c9.6,0,18.4-2.8,26.4-8.5c8.1-5.7,15.1-13.1,21.3-22.4c6.1-9.3,11.5-19.8,16.1-31.6
		c4.6-11.8,8.4-23.8,11.4-36.1c3-12.2,5.2-24.2,6.7-35.8c1.5-11.6,2.2-21.9,2.2-30.9c0-15.2-2.3-26.4-6.9-33.6
		c-4.6-7.2-11.7-10.8-21.3-10.8c-9.9,0-18.8,2.8-26.9,8.5s-15.2,13.1-21.5,22.4c-6.3,9.3-11.7,19.9-16.4,31.8
		c-4.6,11.9-8.4,24-11.4,36.3s-5.2,24.2-6.7,35.8c-1.5,11.6-2.2,22-2.2,30.9c0,15.5,2.4,26.7,7.2,33.6
		C332.2,394.3,339.5,397.7,349.4,397.7z"/>
	<path class="st1" d="M490.1,378.4c0-9,1.3-17.5,3.8-25.8c2.5-8.2,6.6-16.2,12.1-24s12.6-15.3,21.3-22.6
		c8.7-7.3,19.1-14.7,31.4-22.2c-7.2-6.9-13.2-14.7-18.1-23.5c-4.9-8.8-7.4-19.5-7.4-32c0-11.6,2.2-23.3,6.5-34.9
		c4.3-11.6,11-22.1,20.2-31.4c9.1-9.3,20.5-16.7,34.3-22.4c13.7-5.7,30-8.5,48.8-8.5c12.5,0,24.2,1.8,34.9,5.4s20,8.6,27.8,15
		s13.9,14.3,18.4,23.5c4.5,9.3,6.7,19.4,6.7,30.5c0,6.6-0.8,13.5-2.2,20.8c-1.5,7.3-4.5,14.6-9,21.9c-4.5,7.3-10.8,14.7-19,22.2
		s-19,14.5-32.5,21.1c5.1,3.6,9.9,7.5,14.3,11.6c4.5,4.2,8.4,9,11.6,14.3c3.3,5.4,5.9,11.4,7.8,17.9c1.9,6.6,2.9,14,2.9,22.4
		c0,13.4-2.6,26.1-7.8,37.9S684,417.7,674,426.5s-22.5,15.8-37.4,20.8c-14.9,5.1-32,7.6-51.1,7.6c-11,0-22.3-1.3-33.6-3.8
		s-21.6-6.9-30.7-13c-9.1-6.1-16.6-14-22.4-23.7C493,404.8,490.1,392.8,490.1,378.4z M640.1,359.6c0-6-1-11.3-3.1-15.9
		s-5-8.9-8.7-12.8s-8.1-7.4-13-10.5s-10.2-6.2-15.9-9.2c-9.3,4.5-16.8,9.2-22.6,14.1s-10.5,9.9-13.9,15s-5.8,10.2-6.9,15.2
		c-1.2,5.1-1.8,10-1.8,14.8c0,10.5,3.6,18.3,11,23.5c7.3,5.2,16.2,7.8,26.7,7.8c6.3,0,12.3-1,18.1-2.9s11-4.7,15.5-8.3
		s8.1-8,10.8-13.2C638.8,372.1,640.1,366.2,640.1,359.6z M594.4,224.3c0,9.6,3,17.6,9,24.2c6,6.6,13.1,12.4,21.5,17.5
		c17.3-8.1,28.9-16.5,34.7-25.3s8.7-17.4,8.7-25.8c0-9.6-3-17-9-22.4s-14.2-8.1-24.6-8.1c-12.3,0-22,3.9-29.3,11.6
		C598.1,203.9,594.4,213.3,594.4,224.3z"/>
</g>
<g>
	<g>
		<path class="st3" d="M926.3,138.3l-74.8,310.5h-66.8l53.8-223.5c-10.5,6-21.8,11.4-34,16.4c-12.3,4.9-23.9,9.2-34.9,12.8
			l-8.1-51.5c9.5-3.6,19.6-7.7,30-12.3c10.5-4.6,20.8-9.7,31.1-15.2s20.4-11.4,30.2-17.5s18.8-12.6,26.9-19.5L926.3,138.3
			 M926.3,125.3h-46.6c-3.1,0-6.1,1.1-8.4,3.1c-7.5,6.4-16,12.6-25.3,18.3c-9.6,6-19.5,11.7-29.5,17.1c-9.9,5.3-20.1,10.3-30.3,14.8
			c-10.1,4.5-20,8.5-29.3,12c-5.8,2.2-9.2,8.1-8.3,14.2l8.1,51.5c0.6,3.8,2.8,7.1,6,9.1c2.1,1.3,4.4,1.9,6.8,1.9
			c1.3,0,2.7-0.2,4-0.6c11.3-3.7,23.3-8.1,35.8-13.1c3.4-1.4,6.7-2.8,10-4.2l-47.2,196.3c-0.9,3.9,0,8,2.4,11.1s6.2,5,10.2,5h66.8
			c6,0,11.2-4.1,12.6-10L939,141.4c0.9-3.9,0-8-2.4-11.1C934.1,127.1,930.3,125.3,926.3,125.3L926.3,125.3z"/>
	</g>
	<g>
		<path class="st3" d="M1173.6,138.3l-13.4,55.6h-110.7c-3,10.8-6.2,21.6-9.6,32.5s-6.5,20.1-9.2,27.6c17.9,1.5,33.4,4.9,46.4,10.1
			s23.7,11.9,32.3,19.9c8.5,8.1,14.8,17.3,19,27.5c4.2,10.3,6.3,21.3,6.3,32.9c0,16.7-2.8,32-8.3,45.7s-13.8,25.4-24.9,34.9
			c-11,9.6-24.8,17-41.2,22.2c-16.4,5.2-35.4,7.8-56.9,7.8c-6.3,0-13.4-0.5-21.5-1.3c-8.1-0.9-16.3-2.2-24.9-3.8
			c-8.5-1.6-16.9-3.8-25.1-6.5c-8.2-2.7-15.8-5.8-22.6-9.4l24.6-54.2c10.5,6.3,21.7,11,33.6,14.3c11.9,3.3,23.4,4.9,34.5,4.9
			c21.5,0,37.9-4,49.3-12.1c11.3-8.1,17-20.6,17-37.6c0-7.2-2-13.7-5.8-19.5c-3.9-5.8-10.2-10.8-18.8-14.8c-8.7-4-20.2-7.2-34.7-9.4
			c-14.5-2.2-32.2-3.4-53.1-3.4c9.9-27.8,19.3-55.8,28.2-84c9-28.2,16.9-54.9,23.7-80L1173.6,138.3 M1173.6,125.3h-165.8
			c-5.9,0-11,3.9-12.5,9.6c-6.8,24.9-14.8,51.6-23.6,79.5c-8.9,27.9-18.3,56.1-28.1,83.6c-1.4,4-0.8,8.4,1.6,11.9s6.4,5.5,10.6,5.5
			c20.1,0,37.3,1.1,51.1,3.2c13.2,2,23.7,4.9,31.2,8.4c6.4,3,11,6.4,13.5,10.2c2.4,3.7,3.6,7.7,3.6,12.3c0,16.9-6.6,23.5-11.6,27
			c-9,6.4-23.1,9.7-41.7,9.7c-9.8,0-20.3-1.5-31-4.5c-10.8-3-21-7.3-30.4-13c-2-1.2-4.4-1.9-6.7-1.9c-1.3,0-2.6,0.2-3.9,0.6
			c-3.5,1.1-6.4,3.7-8,7l-24.6,54.2c-2.9,6.3-0.3,13.7,5.8,16.9c7.5,3.9,15.7,7.3,24.6,10.2c8.7,2.9,17.7,5.2,26.7,6.9
			c8.9,1.7,17.6,3,25.9,4c8.5,0.9,16.2,1.4,22.9,1.4c22.7,0,43.2-2.8,60.8-8.5c18-5.7,33.4-14.1,45.8-24.7
			c12.6-10.9,22.1-24.3,28.4-39.9c6.1-15.2,9.2-32.2,9.2-50.5c0-13.3-2.4-26-7.2-37.8c-4.9-12-12.3-22.8-22.2-32.1
			c-9.7-9.1-21.9-16.7-36.3-22.6c-9.9-4-21.2-7-33.7-9c1.3-3.9,2.7-8.2,4.1-12.7c2.5-7.8,4.8-15.6,7.1-23.4H1160
			c6,0,11.2-4.1,12.6-9.9l13.4-55.6c0.9-3.9,0.1-8-2.4-11.1C1181.4,127.1,1177.6,125.3,1173.6,125.3L1173.6,125.3z"/>
	</g>
</g>
<g>
	<path class="st1" d="M761.5,202.8c9.5-3.6,19.6-7.7,30-12.3c10.5-4.6,20.8-9.7,31.1-15.2s20.4-11.4,30.2-17.5s18.8-12.6,26.9-19.5
		h46.6l-74.8,310.5h-66.8l53.8-223.5c-10.5,6-21.8,11.4-34,16.4c-12.3,4.9-23.9,9.2-34.9,12.8L761.5,202.8z"/>
	<path class="st1" d="M934,379.8c10.5,6.3,21.7,11,33.6,14.3c11.9,3.3,23.4,4.9,34.5,4.9c21.5,0,37.9-4,49.3-12.1
		c11.3-8.1,17-20.6,17-37.6c0-7.2-2-13.7-5.8-19.5c-3.9-5.8-10.2-10.8-18.8-14.8c-8.7-4-20.2-7.2-34.7-9.4
		c-14.5-2.2-32.2-3.4-53.1-3.4c9.9-27.8,19.3-55.8,28.2-84s16.9-54.9,23.7-80h165.8l-13.4,55.6h-110.6c-3,10.8-6.2,21.6-9.6,32.5
		s-6.5,20.1-9.2,27.6c17.9,1.5,33.4,4.9,46.4,10.1s23.7,11.9,32.3,19.9c8.5,8.1,14.8,17.3,19,27.5c4.2,10.3,6.3,21.3,6.3,32.9
		c0,16.7-2.8,32-8.3,45.7s-13.8,25.4-24.9,34.9c-11,9.6-24.8,17-41.2,22.2c-16.4,5.2-35.4,7.8-56.9,7.8c-6.3,0-13.4-0.5-21.5-1.3
		c-8.1-0.9-16.3-2.2-24.9-3.8c-8.5-1.6-16.9-3.8-25.1-6.5c-8.2-2.7-15.8-5.8-22.6-9.4L934,379.8z"/>
</g>
<g>
	<path class="st5" d="M1183.5,549.5c89.8-22.7,179.5,22.5,269.3-0.5c-0.1-21-0.1-42.1-0.2-63.1c-89.8,22.9-179.5-22.3-269.3,0.5
		C1183.4,507.4,1183.5,528.5,1183.5,549.5z"/>
	<path class="st5" d="M1183.2,423.3c89.8-22.9,179.5,22.3,269.3-0.5c-0.1-21-0.1-42.1-0.2-63.1c-89.8,22.7-179.5-22.5-269.3,0.5
		C1183,381.2,1183.1,402.2,1183.2,423.3z"/>
	<g>
		<path class="st1" d="M1452.4,422.7c-89.8,22.8-179.5-22.4-269.3,0.5c0.1,21,0.1,42.1,0.2,63.1c89.8-22.8,179.5,22.4,269.3-0.5
			C1452.6,464.8,1452.5,443.8,1452.4,422.7z M1222.8,469.7c-11.3,5.6-24.5,2.6-29.5-7.6s0.1-24.8,11.4-31.4
			c11.3-6.7,24.5-2.1,29.5,9.1C1239.2,451,1234.1,464,1222.8,469.7z"/>
	</g>
</g>
<g>
	<path class="st1" d="M1213.4,458.9c6.2-10.1-1.1-23.2-12.9-35.8c-2.9,8-4.9,15.7-6.2,23.1l-1.9-1.2c0.4,0.6,0.8,1.1,1.1,1.6
		c-10.5-1-35.4-9.3-68.9-29.9s-52.1-39-57.8-48c0.7,0.1,1.4,0.2,2.2,0.3l-3.3-2l2-3.2l3.8-14.9c-11-1.5-20.2,0.2-24.7,7.5
		c-15.5,25.2,53.2,69.1,67.1,77.7C1127.7,442.8,1198,484.2,1213.4,458.9z"/>
</g>
<g>
	<g>
		<path class="st6" d="M1210.2,456.9c4.7-7.7-0.8-18.4-11.1-29.6c-1.7,5.1-3,10.2-4,15.1c1.6,2.2,2.7,4.1,3.4,5.5l1,2.4l-2.6,0.2
			c-8.8,0.7-35.8-6.9-74.3-30.5s-57.4-44.3-60.8-52.5l-1-2.4l2.6-0.2c0.2,0,0.5,0,0.8,0c1.9-3.9,3.1-8.1,3.5-12.5
			c-8.2-0.6-14.6,1-17.7,6.1c-11.3,18.4,36.1,54.2,65.8,72.5C1145.6,449.3,1198.9,475.3,1210.2,456.9z"/>
		<path class="st1" d="M1195.7,465.1c-6.9,0-15.7-1.9-26.4-5.6c-22.6-8-45.7-21.5-54.5-26.9c-8.4-5.1-81.3-50.9-66.5-75.1
			c3.3-5.4,9.9-7.8,19.5-7l1.9,0.1l-0.2,1.9c-0.5,4.7-1.7,9.1-3.7,13.2l-0.5,1h-1.9c3.3,7.9,22,28.2,60.1,51.6s64.6,30.9,73.2,30.2
			c-0.6-1.3-1.6-3.1-3.1-5.1l-0.5-0.7l0.2-0.8c1-4.9,2.4-10.1,4.1-15.3l1-3.1l2.2,2.4c12.2,13.4,16,24.2,11.3,31.9l0,0
			C1208.9,462.7,1203.5,465.1,1195.7,465.1z M1064.5,354.2c-6.4,0-10.8,1.8-12.9,5.4c-9.1,14.9,27.4,46.6,65.2,69.8
			c18.2,11.2,38.3,21.1,53.8,26.5c14.3,5,32.4,9.1,38,0l0,0c4.2-6.9-1.9-16.9-8.6-24.9c-1.1,3.7-2.1,7.3-2.8,10.9
			c1.4,2,2.5,3.8,3.1,5.2l2,4.8l-5.2,0.4c-9.1,0.7-36.6-6.9-75.4-30.8s-58.1-45-61.6-53.3l-2-4.9l5-0.4c1.3-2.8,2.1-5.8,2.6-8.9
			C1065.2,354.2,1064.8,354.2,1064.5,354.2z"/>
	</g>
</g>
<g>
	<path class="st1" d="M1235.3,437.9c-2.9-6.4-8.2-11.3-14.7-13.3c-6.7-2.1-13.8-1.2-20.2,2.5c-6.3,3.7-11.3,10-13.6,17
		c-0.4,1.1-0.6,2.2-0.9,3.3l8.1,2c0.2-0.9,0.4-1.8,0.7-2.7c1.7-5.2,5.4-9.8,10-12.5c2.8-1.6,5.8-2.5,8.7-2.5c1.6,0,3.2,0.2,4.7,0.7
		c4.3,1.4,7.7,4.5,9.7,8.8c4,8.9-0.1,19.5-9.2,24.1c-5,2.5-10.6,3-15.3,1.4c-2.7-0.9-4.9-2.4-6.5-4.5h-9.6c0.2,0.4,0.3,0.8,0.5,1.1
		c2.6,5.3,7.2,9.2,12.9,11.2c2.7,0.9,5.5,1.4,8.4,1.4c4.5,0,9-1.1,13.2-3.2C1235.3,466.2,1241.1,450.9,1235.3,437.9z"/>
	<path class="st7" d="M1209.3,469.9c-3.7,0-7.3-1-10.4-2.9l1.6-2.5c4.9,3.1,11.7,3.2,17.7,0.3c8.7-4.4,12.6-14.5,8.8-23.1
		c-1.9-4.2-5.2-7.2-9.4-8.6c-4.3-1.4-8.9-0.8-13.1,1.7c-4.6,2.7-8.1,7.3-9.6,12.5l-2.9-0.8c1.7-6,5.7-11.2,11-14.3
		c4.9-2.9,10.4-3.6,15.5-2c5,1.6,9.1,5.3,11.3,10.2c4.5,10,0,21.9-10.2,27C1216.4,469.1,1212.8,469.9,1209.3,469.9z"/>
</g>
</svg>
